<svg xmlns="http://www.w3.org/2000/svg" version="1.1" xmlns:xlink="http://www.w3.org/1999/xlink" width="1000" height="1000"><g clip-path="url(#SvgjsClipPath1051)"><rect width="1000" height="1000" fill="#ffffff"></rect><g transform="matrix(16.666666666666668,0,0,16.666666666666668,100,100)"><svg xmlns="http://www.w3.org/2000/svg" version="1.1" xmlns:xlink="http://www.w3.org/1999/xlink" width="48" height="48"><svg xmlns="http://www.w3.org/2000/svg" width="48" height="48" viewBox="0 0 48 48"><g fill="none" stroke="currentColor" stroke-linecap="round" stroke-linejoin="round" stroke-width="4"><path d="M24 44c11.046 0 20-8.954 20-20S35.046 4 24 4S4 12.954 4 24s8.954 20 20 20" clip-rule="evenodd"></path><path d="M4 24h40"></path><path d="M24 44c4.418 0 8-8.954 8-20S28.418 4 24 4s-8 8.954-8 20s3.582 20 8 20" clip-rule="evenodd"></path><path d="M9.858 10.142A19.94 19.94 0 0 0 24 16a19.94 19.94 0 0 0 14.142-5.858m0 27.716A19.94 19.94 0 0 0 24 32a19.94 19.94 0 0 0-14.142 5.858"></path></g></svg></svg></g></g><defs><clipPath id="SvgjsClipPath1051"><rect width="1000" height="1000" x="0" y="0" rx="500" ry="500"></rect></clipPath></defs></svg>